<?xml version="1.0" encoding="UTF-8" standalone="no"?>
<svg
   version="1.1"
   width="569.6236"
   height="567.73438"
   id="svg21"
   sodipodi:docname="jumbo-logo.svg"
   inkscape:version="1.4.2 (f4327f4, 2025-05-13)"
   xmlns:inkscape="http://www.inkscape.org/namespaces/inkscape"
   xmlns:sodipodi="http://sodipodi.sourceforge.net/DTD/sodipodi-0.dtd"
   xmlns="http://www.w3.org/2000/svg"
   xmlns:svg="http://www.w3.org/2000/svg">
  <defs
     id="defs21">
    <clipPath
       clipPathUnits="userSpaceOnUse"
       id="clipPath2">
      <rect
         style="fill:#66b4f4;fill-opacity:0.81;stroke-width:0.914242"
         id="rect2"
         width="569.6236"
         height="567.73438"
         x="-301.28412"
         y="-637.35052" />
    </clipPath>
    <clipPath
       clipPathUnits="userSpaceOnUse"
       id="clipPath3">
      <rect
         style="fill:#66b4f4;fill-opacity:0.81;stroke-width:0.914242"
         id="rect3"
         width="569.6236"
         height="567.73438"
         x="-252.28412"
         y="-639.35052" />
    </clipPath>
    <clipPath
       clipPathUnits="userSpaceOnUse"
       id="clipPath4">
      <rect
         style="fill:#66b4f4;fill-opacity:0.81;stroke-width:0.914242"
         id="rect4"
         width="569.6236"
         height="567.73438"
         x="-485.28412"
         y="-657.35052" />
    </clipPath>
    <clipPath
       clipPathUnits="userSpaceOnUse"
       id="clipPath5">
      <rect
         style="fill:#66b4f4;fill-opacity:0.81;stroke-width:0.914242"
         id="rect5"
         width="569.6236"
         height="567.73438"
         x="-215.28412"
         y="-280.35052" />
    </clipPath>
    <clipPath
       clipPathUnits="userSpaceOnUse"
       id="clipPath6">
      <rect
         style="fill:#66b4f4;fill-opacity:0.81;stroke-width:0.914242"
         id="rect6"
         width="569.6236"
         height="567.73438"
         x="-192.28412"
         y="-608.35052" />
    </clipPath>
    <clipPath
       clipPathUnits="userSpaceOnUse"
       id="clipPath7">
      <rect
         style="fill:#66b4f4;fill-opacity:0.81;stroke-width:0.914242"
         id="rect7"
         width="569.6236"
         height="567.73438"
         x="-362.28412"
         y="-622.35052" />
    </clipPath>
    <clipPath
       clipPathUnits="userSpaceOnUse"
       id="clipPath8">
      <rect
         style="fill:#66b4f4;fill-opacity:0.81;stroke-width:0.914242"
         id="rect8"
         width="569.6236"
         height="567.73438"
         x="-362.28412"
         y="-653.35052" />
    </clipPath>
    <clipPath
       clipPathUnits="userSpaceOnUse"
       id="clipPath9">
      <rect
         style="fill:#66b4f4;fill-opacity:0.81;stroke-width:0.914242"
         id="rect9"
         width="569.6236"
         height="567.73438"
         x="-208.47162"
         y="-189.47552" />
    </clipPath>
    <clipPath
       clipPathUnits="userSpaceOnUse"
       id="clipPath10">
      <rect
         style="fill:#66b4f4;fill-opacity:0.81;stroke-width:0.914242"
         id="rect10"
         width="569.6236"
         height="567.73438"
         x="-375.47162"
         y="-189.47552" />
    </clipPath>
    <clipPath
       clipPathUnits="userSpaceOnUse"
       id="clipPath11">
      <rect
         style="fill:#66b4f4;fill-opacity:0.81;stroke-width:0.914242"
         id="rect11"
         width="569.6236"
         height="567.73438"
         x="-100.28412"
         y="-608.35052" />
    </clipPath>
    <clipPath
       clipPathUnits="userSpaceOnUse"
       id="clipPath12">
      <rect
         style="fill:#66b4f4;fill-opacity:0.81;stroke-width:0.914242"
         id="rect12"
         width="569.6236"
         height="567.73438"
         x="-474.22162"
         y="-623.03802" />
    </clipPath>
    <clipPath
       clipPathUnits="userSpaceOnUse"
       id="clipPath13">
      <rect
         style="fill:#66b4f4;fill-opacity:0.81;stroke-width:0.914242"
         id="rect13"
         width="569.6236"
         height="567.73438"
         x="-143.28412"
         y="-608.35052" />
    </clipPath>
    <clipPath
       clipPathUnits="userSpaceOnUse"
       id="clipPath14">
      <rect
         style="fill:#66b4f4;fill-opacity:0.81;stroke-width:0.914242"
         id="rect14"
         width="569.6236"
         height="567.73438"
         x="-235.28412"
         y="-608.35052" />
    </clipPath>
    <clipPath
       clipPathUnits="userSpaceOnUse"
       id="clipPath15">
      <rect
         style="fill:#66b4f4;fill-opacity:0.81;stroke-width:0.914242"
         id="rect15"
         width="569.6236"
         height="567.73438"
         x="-344.28412"
         y="-608.35052" />
    </clipPath>
    <clipPath
       clipPathUnits="userSpaceOnUse"
       id="clipPath16">
      <rect
         style="fill:#66b4f4;fill-opacity:0.81;stroke-width:0.914242"
         id="rect16"
         width="569.6236"
         height="567.73438"
         x="-482.7099"
         y="-610.81531" />
    </clipPath>
    <clipPath
       clipPathUnits="userSpaceOnUse"
       id="clipPath17">
      <rect
         style="fill:#66b4f4;fill-opacity:0.81;stroke-width:0.914242"
         id="rect17"
         width="569.6236"
         height="567.73438"
         x="-446.28412"
         y="-62.038025" />
    </clipPath>
    <clipPath
       clipPathUnits="userSpaceOnUse"
       id="clipPath18">
      <rect
         style="fill:#66b4f4;fill-opacity:0.81;stroke-width:0.914242"
         id="rect18"
         width="569.6236"
         height="567.73438"
         x="-121.28412"
         y="-62.100525" />
    </clipPath>
    <clipPath
       clipPathUnits="userSpaceOnUse"
       id="clipPath19">
      <rect
         style="fill:#66b4f4;fill-opacity:0.81;stroke-width:0.914242"
         id="rect19"
         width="569.6236"
         height="567.73438"
         x="-480.28412"
         y="-283.35052" />
    </clipPath>
    <clipPath
       clipPathUnits="userSpaceOnUse"
       id="clipPath20">
      <rect
         style="fill:#66b4f4;fill-opacity:0.81;stroke-width:0.914242"
         id="rect20"
         width="569.6236"
         height="567.73438"
         x="-393.7724"
         y="-66.354431" />
    </clipPath>
    <clipPath
       clipPathUnits="userSpaceOnUse"
       id="clipPath21">
      <rect
         style="fill:#66b4f4;fill-opacity:0.81;stroke-width:0.914242"
         id="rect21"
         width="569.6236"
         height="567.73438"
         x="-281.97162"
         y="-4.1005249" />
    </clipPath>
    <clipPath
       clipPathUnits="userSpaceOnUse"
       id="clipPath22">
      <rect
         style="fill:#66b4f4;fill-opacity:0.81;stroke-width:0.914242"
         id="rect22"
         width="569.6236"
         height="567.73438"
         x="226.71588"
         y="432.64948" />
    </clipPath>
  </defs>
  <sodipodi:namedview
     id="namedview21"
     pagecolor="#ffffff"
     bordercolor="#000000"
     borderopacity="0.25"
     inkscape:showpageshadow="2"
     inkscape:pageopacity="0.0"
     inkscape:pagecheckerboard="0"
     inkscape:deskcolor="#d1d1d1"
     showgrid="false"
     inkscape:zoom="1.0585937"
     inkscape:cx="92.103325"
     inkscape:cy="260.25093"
     inkscape:window-width="1920"
     inkscape:window-height="1094"
     inkscape:window-x="-11"
     inkscape:window-y="-11"
     inkscape:window-maximized="1"
     inkscape:current-layer="layer5" />
  <g
     inkscape:groupmode="layer"
     id="layer5"
     inkscape:label="jumbo"
     transform="translate(-226.71588,-432.64948)">
    <path
       d="m 0,0 c 337.92,0 675.84,0 1024,0 0,506.88 0,1013.76 0,1536 -337.92,0 -675.84,0 -1024,0 C 0,1029.12 0,522.24 0,0 Z"
       fill="#f9f9f9"
       id="path1"
       style="display:none"
       clip-path="url(#clipPath22)"
       inkscape:export-filename="logo-candidate-1.svg"
       inkscape:export-xdpi="96"
       inkscape:export-ydpi="96" />
    <path
       d="M 0,0 C 0.78216888,-6.7474e-4 1.5643378,-0.00134949 2.3702087,-0.00204468 14.929176,0.01514025 26.975439,0.76630933 39.3125,3.25 40.185518,3.4109717 41.058535,3.5719434 41.958008,3.737793 68.971845,8.7540978 102.44057,21.378068 122.3125,41.25 c 2.25287,-0.221037 2.25287,-0.221037 5,-1 1.33156,-0.314514 2.66363,-0.626831 3.99609,-0.9375 2.22653,-0.531352 4.45243,-1.065156 6.67774,-1.601563 0.7251,-0.172734 1.45019,-0.345468 2.19726,-0.523437 0.64897,-0.155977 1.29793,-0.311953 1.96656,-0.472656 15.52136,-3.336646 33.64765,-2.780486 49.16235,0.535156 0.97969,0.194648 1.95937,0.389297 2.96875,0.589844 18.32073,4.073951 35.15124,12.828273 49.03125,25.410156 0.4871,0.437959 0.97421,0.875918 1.47607,1.327148 17.65342,16.071244 27.71822,36.767842 33.52393,59.672852 0.30809,1.20141 0.61617,2.40281 0.93359,3.64063 2.71185,11.15877 3.30632,21.9069 3.31641,33.35937 10e-4,1.03413 10e-4,1.03413 0.002,2.08914 -0.0165,10.59897 -0.54831,20.60832 -3.25204,30.91086 -0.24943,0.97284 -0.24943,0.97284 -0.50391,1.96533 -5.19007,19.75593 -14.47525,36.20585 -28.49609,51.03467 -0.69867,0.76312 -1.39734,1.52625 -2.11719,2.3125 -8.27704,8.73182 -18.26379,15.1408 -28.88281,20.6875 0.43085,1.29432 0.86188,2.58857 1.29297,3.88281 0.27505,0.82661 0.55011,1.65323 0.83349,2.50489 0.55586,1.66227 1.11565,3.32324 1.68067,4.98242 15.81096,46.52311 20.87767,99.01881 12.19287,147.62988 -0.18804,1.12551 -0.37608,2.25103 -0.56982,3.41064 -6.28993,37.14409 -18.14334,93.81841 -50.10987,117.09717 -3.94595,2.53764 -8.03333,4.59697 -12.32031,6.49219 -0.65613,0.29777 -1.31227,0.59555 -1.98828,0.90234 -9.39565,3.91 -19.68999,4.41123 -29.74219,4.4336 -1.0747,0.007 -2.1494,0.0133 -3.25667,0.0202 -2.25793,0.0101 -4.51589,0.0148 -6.77385,0.0145 -3.40114,0.004 -6.80098,0.0407 -10.2019,0.0786 C 101.33639,561.79772 82.919948,560.5713 68.375,546.875 60.252128,538.15848 58.24952,528.13909 56.636719,516.53906 54.879644,503.77981 54.879644,503.77981 49.3125,492.25 48.755625,491.3425 48.19875,490.435 47.625,489.5 33.593412,475.84764 12.687462,475.69971 -5.6328125,475.90234 -18.482978,476.30977 -29.649264,480.17152 -39.4375,488.625 c -8.334878,9.72402 -9.815716,21.86798 -11.623047,34.14648 -1.967915,12.30976 -6.697295,20.81421 -16.376953,28.72852 -14.594898,10.31708 -33.64096,10.26285 -50.73462,10.19604 -3.3111,-0.009 -6.62046,0.0203 -9.9314,0.052 -21.60706,0.0718 -41.25903,-3.03231 -57.58398,-18.49805 -5.40152,-5.51602 -9.23645,-11.33412 -12.75,-18.1875 -0.51023,-0.99266 -1.02045,-1.98532 -1.54614,-3.00806 -14.60768,-29.19958 -24.05978,-61.53748 -28.70386,-93.80444 -0.21156,-1.35448 -0.42494,-2.70867 -0.64062,-4.0625 -2.17465,-14.16628 -2.54584,-28.16966 -2.54468,-42.4729 -0.002,-2.99681 -0.0204,-5.99325 -0.0393,-8.98999 -0.0987,-33.88323 4.46431,-71.96135 20.22461,-102.47461 -0.86367,-0.24879 -1.72734,-0.49758 -2.61719,-0.75391 -11.01357,-4.05696 -20.06534,-13.22824 -28.38281,-21.24609 -0.72961,-0.66645 -1.45922,-1.33289 -2.21094,-2.01953 -18.26415,-17.1452 -26.87467,-41.88584 -30.78906,-65.98047 -0.27844,-1.35545 -0.27844,-1.35545 -0.5625,-2.73828 -3.86011,-28.77853 2.30317,-59.1276 16.5625,-84.26172 0.36577,-0.659517 0.73154,-1.319033 1.1084,-1.998535 6.21204,-11.073052 13.86277,-20.113392 22.8916,-29.001465 0.7309,-0.729609 1.4618,-1.459219 2.21484,-2.210938 22.89892,-21.39814 53.73329,-25.622505 83.66455,-24.934082 9.27575,0.431059 18.24373,2.558889 27.00733,5.594239 2.60307,0.678435 4.42914,0.912733 7.11328,0.550781 2.75801,-1.78175 2.75801,-1.78175 5.5625,-4.25 13.634267,-11.029744 29.165079,-19.331175 45.4375,-25.75 1.180781,-0.469219 2.361562,-0.938437 3.578125,-1.421875 C -41.569405,2.730647 -20.675466,0.01600121 0,0 Z"
       fill="#242626"
       transform="translate(508.6875,436.75)"
       id="path2"
       clip-path="url(#clipPath21)"
       style="fill:#202626;fill-opacity:1" />
    <path
       d="m 0,0 c 3.2642125,2.9056276 6.4133076,5.9148848 9.5117188,8.9960938 0.4830761,0.4790478 0.9661522,0.9580957 1.4638672,1.4516602 20.381711,20.499645 32.876189,47.448722 38.536133,75.54834 0.320976,1.544941 0.320976,1.544941 0.648437,3.121093 6.568749,33.557733 3.121184,72.285023 -16.223877,101.205083 -15.342392,21.83252 -38.4292292,34.11506 -63.944091,40.26367 -2.539508,0.41992 -4.91131,0.48857 -7.480469,0.41015 0.28875,-0.48468 0.5775,-0.96937 0.875,-1.46875 2.846324,-5.13919 3.89545,-8.65656 3.125,-14.53125 -1.25387,-3.08817 -1.25387,-3.08817 -4,-5 -3.055708,-0.96916 -5.819311,-1.47737 -9,-1 -4.660647,2.8748 -6.900272,6.62869 -9.4375,11.3125 -0.38688,0.70423 -0.77376,1.40847 -1.172364,2.13404 -9.500977,17.67371 -16.534511,38.45801 -11.51123,58.63159 3.631968,11.0757 9.163409,18.5818 19.25,24.48047 11.654569,5.85107 25.978753,6.41736 38.363281,2.40625 12.2557839,-4.71523 21.6169,-12.1786 29.949219,-22.3125 0.771504,-0.81791 0.771504,-0.81791 1.558594,-1.65235 0.66,0 1.32,0 2,0 3.344594,5.29561 3.927393,9.91342 3,16 -4.782708,14.87954 -20.0691427,27.15289 -33.2421877,34.62891 -24.1649743,12.01403 -55.2947403,16.76014 -81.4023433,8.04687 -21.775798,-8.11196 -41.060828,-20.3689 -53.355468,-40.67578 -0.34241,-0.558 -0.68482,-1.116 -1.0376,-1.69091 -12.62347,-20.94261 -17.95201,-44.87085 -20.46631,-68.96924 -0.0762,-0.69078 -0.15243,-1.38156 -0.23095,-2.09326 -0.18557,-1.77111 -0.33464,-3.54594 -0.47998,-5.32081 -1.01956,-3.79925 -2.82093,-5.4141 -5.78516,-7.92578 -2.85325,-1.42662 -4.83455,-1.31033 -8,-1 -2.9319,1.24363 -2.9319,1.24363 -5,4 -0.99737,3.29699 -1.5636,6.58693 -2,10 -18.43641,-0.65844 -37.70105,-11.84154 -51,-24 -0.85207,-0.75925 -1.70414,-1.51851 -2.58203,-2.30078 -12.89655,-12.10413 -20.05056,-27.46117 -25.16797,-44.19922 -0.19884,-0.63913 -0.39768,-1.27826 -0.60254,-1.93676 -3.44944,-11.93253 -3.99741,-24.10641 -3.96314,-36.43872 0.003,-2.35839 -0.0204,-4.7155 -0.0456,-7.07373 -0.16431,-39.443643 16.39863,-76.614243 43.36133,-105.0507863 0.44182,-0.474375 0.88365,-0.94875 1.33887,-1.4375 C -166.86793,-54.669216 -61.571327,-53.55014 0,0 Z"
       fill="#f8f9f9"
       transform="translate(620.48828,499.00391)"
       id="path3"
       clip-path="url(#clipPath20)" />
    <path
       d="m 0,0 c 11.684261,32.516119 18.216544,64.953928 18.3125,99.5625 0.0056,1.11738 0.0056,1.11738 0.01141,2.25732 0.03878,15.08 -1.790323,29.739 -4.198914,44.61768 -0.257168,1.59195 -0.257168,1.59195 -0.519531,3.21606 C 12.084081,158.85615 10.26166,167.95105 8,177 7.7280078,178.08926 7.4560156,179.17852 7.1757812,180.30078 -9.3408685,241.50954 -9.3408685,241.50954 -28,253 c -12.865467,6.27541 -26.119696,7.34559 -40.255859,7.26074 -2.110321,-0.0107 -4.219784,-4e-5 -6.330078,0.0127 C -88.309352,260.29 -102.26411,260.01569 -114,252 c -2.97529,-3.23238 -3.58404,-5.97546 -4.21094,-10.27734 -0.19336,-1.23686 -0.38672,-2.47371 -0.58594,-3.74805 -0.38016,-2.57254 -0.75784,-5.14545 -1.13281,-7.71875 -2.58946,-16.49928 -8.42397,-30.48971 -21.47265,-41.41211 -21.29057,-15.1115 -49.95564,-17.71843 -75.16016,-13.65625 -15.16419,2.73973 -31.25477,9.39825 -40.85156,21.97656 -0.74726,1.14702 -1.48423,2.3008 -2.21094,3.46094 -0.36867,0.55301 -0.73734,1.10602 -1.11719,1.67578 -6.93647,10.86877 -8.51085,22.95733 -10.32422,35.48828 -0.29197,1.86399 -0.29197,1.86399 -0.58984,3.76563 -0.16307,1.11874 -0.32613,2.23749 -0.49414,3.39013 -1.13832,4.09338 -3.15186,6.84304 -6.61133,9.31299 -13.20147,5.94468 -27.23164,6.02632 -41.42578,6.05469 -0.72412,0.004 -1.44824,0.007 -2.19431,0.0109 C -348.5873,260.393 -348.5873,260.393 -360,254 c -1.03125,-0.5775 -2.0625,-1.155 -3.125,-1.75 -21.4923,-16.82006 -30.73247,-55.83293 -36.38965,-81.11816 -0.37947,-1.66676 -0.77707,-3.32939 -1.18164,-4.99024 -1.91296,-7.96225 -3.3013,-15.90825 -4.42871,-24.0166 -0.16887,-1.15113 -0.33773,-2.30227 -0.51172,-3.48828 C -409.45796,111.64735 -409.41309,83.899852 -405,57 c 0.16629,-1.017231 0.33258,-2.034463 0.50391,-3.08252 C -401.44446,35.926978 -396.9362,17.914964 -390,1 c 4.94102,0.6160392 9.5601,1.6220889 14.375,2.9375 5.65816,1.4706584 11.25496,2.572846 17.0625,3.25 0.70359,0.083789 1.40717,0.1675781 2.13208,0.2539062 3.59626,0.3870564 7.10227,0.5875237 10.71948,0.5117188 10.66421,-0.1192756 16.32564,2.703992 24.74219,9.121094 C -306.25033,28.261814 -287.94974,33.098793 -270,36 c 1.70776,4.76216 2.79196,9.499256 3.8125,14.4375 7.04435,32.452888 24.53367,62.46105 52.48047,81.24609 28.56457,18.32747 65.38314,24.65694 98.66015,17.49219 27.975963,-7.65874 55.277535,-23.22463 70.23438,-48.84765 5.861491,-10.762915 7.782119,-21.398453 5.117188,-33.480474 C -43.196492,56.358829 -51.732679,43.13366 -62,38 c -4.784969,-0.478497 -6.958603,-0.658843 -11.0625,1.9375 -3.032066,2.901655 -5.496738,6.2545 -8.023437,9.59375 C -88.539029,59.144217 -96.55331,68.594843 -109,71 c -6.67885,0.678247 -12.18648,0.48811 -18,-3 -4.60353,-4.27208 -6.85918,-8.627561 -7.23047,-14.882813 0.004,-1.414129 0.0185,-2.828264 0.043,-4.242187 6.4e-4,-0.71543 10e-4,-1.430859 0.002,-2.167969 0.0266,-3.158622 0.18032,-5.691338 1.18555,-8.707031 1.10215,-0.170156 2.2043,-0.340313 3.33984,-0.515625 C -103.8634,33.408636 -74.2365,27.2365 -55,8 c 1.674753,-0.1925306 3.356595,-0.3240142 5.039063,-0.4296875 1.048491,-0.071462 2.096982,-0.1429248 3.177246,-0.2165527 C -45.096389,7.2405237 -45.096389,7.2405237 -43.375,7.125 -30.585363,6.1832818 -18.582766,4.2390774 -6.2695312,0.55078125 -4,0 -4,0 0,0 Z"
       fill="#f8f8f9"
       transform="translate(707,716)"
       id="path4"
       clip-path="url(#clipPath19)" />
    <path
       d="M 0,0 C 1.1936719,-0.00773437 2.3873438,-0.01546875 3.6171875,-0.0234375 10.958807,-0.00737269 17.833409,0.64482998 25,2.25 23.281931,5.856319 21.151374,8.6431321 18.625,11.75 -0.53909095,36.073517 -12.104634,64.823714 -17,95.25 c -0.175796,1.056628 -0.351592,2.113257 -0.532715,3.201904 -0.53163,4.321096 -0.647608,8.539336 -0.67041,12.887936 -0.0057,0.86219 -0.0114,1.72438 -0.01727,2.61269 -0.0094,1.82123 -0.01597,3.64248 -0.01984,5.46373 -0.0096,2.73201 -0.04066,5.46324 -0.07227,8.19507 -0.06529,10.94058 0.854657,20.96627 3.3125,31.63867 0.212695,1.02472 0.425391,2.04945 0.644531,3.10522 2.916985,13.87273 8.5319876,27.9416 16.105469,39.9104 C 3,204.25 3,204.25 3,205.25 -25.580094,203.61846 -50.697418,190.26911 -70.3125,169.9375 -80.847649,157.93153 -87.458991,142.71978 -91,127.25 c -0.20625,-0.82887 -0.4125,-1.65773 -0.625,-2.51172 -6.347018,-30.192412 1.417282,-60.517816 17.0625,-86.36328 3.66845,-5.544173 7.910314,-10.388229 12.5625,-15.125 0.748945,-0.773438 1.497891,-1.546875 2.269531,-2.34375 C -43.564662,5.2498137 -21.955145,-0.14225796 0,0 Z"
       fill="#f8f8f8"
       transform="translate(348,494.75)"
       id="path5"
       clip-path="url(#clipPath18)" />
    <path
       d="M 0,0 C 1.3034839,0.00563965 2.6069678,0.0112793 3.9499512,0.01708984 28.532791,0.3275064 49.333499,7.9619853 67,25.3125 c 0.761836,0.737344 1.523672,1.474688 2.308594,2.234375 19.536959,20.180291 27.126438,50.798693 26.993652,78.193605 -0.684732,28.12839 -10.954013,53.26259 -31.286621,72.97046 C 59.737674,183.2642 54.023842,186.83221 48,190.3125 c -1.378652,0.81404 -1.378652,0.81404 -2.785156,1.64453 C 32.664585,198.80099 16.396778,204.59479 2,204.3125 c 1.5046087,-3.94134 3.3136111,-7.65971 5.1875,-11.4375 3.002149,-6.30595 5.400605,-12.73652 7.5625,-19.375 0.281257,-0.8391 0.562515,-1.6782 0.852295,-2.54272 4.796234,-15.22594 5.982664,-30.6475 5.897705,-46.51978 -0.0026,-1.33146 -0.0026,-1.33146 -0.0053,-2.68982 C 21.311624,80.127445 8.2360357,41.114245 -17.852051,8.4970703 -21,4.5234498 -21,4.5234498 -21,2.3125 -14.118763,-0.25772403 -7.2750655,-0.03242214 0,0 Z"
       fill="#f8f8f8"
       transform="translate(673,494.6875)"
       id="path6"
       clip-path="url(#clipPath17)" />
    <path
       d="m 0,0 c 10.03067,5.9818717 16.671263,13.299589 20.511719,24.535156 2.714147,10.771772 1.178091,21.569418 -4.222657,31.320313 -6.4635166,9.182155 -15.0267997,15.938998 -26.0273433,18.429687 -1.2168747,0.0825 -2.4337497,0.165 -3.6874997,0.25 -0.884297,0.06316 -1.768594,0.126328 -2.679688,0.191406 -10.14985,0.408631 -19.514567,-1.857683 -27.445312,-8.433593 C -52.410058,57.987397 -58.323669,49.511633 -58.769775,37.104004 -58.95536,24.720971 -55.636273,15.792741 -46.894531,6.7304687 -34.159725,-4.5938367 -15.481907,-7.75175 0,0 Z"
       fill="#252727"
       transform="translate(709.42578,1043.4648)"
       id="path7"
       style="display:none"
       clip-path="url(#clipPath16)" />
    <path
       d="m 0,0 c 6.744375,-0.0825 13.48875,-0.165 20.4375,-0.25 2.110759,-0.036416 4.221519,-0.072832 6.39624,-0.11035156 1.699941,-0.0116981 3.399893,-0.0218873 5.099854,-0.0302734 1.291217,-0.0306958 1.291217,-0.0306958 2.60852,-0.0620117 C 42.027355,-0.45688547 47.5139,1.8308713 53.8125,5.75 c 4.149657,4.268219 6.399932,8.817515 6.625,14.8125 -0.264927,4.96525 -1.361495,9.350931 -4.972656,12.980469 C 54.026411,34.756965 52.517858,35.886904 51,37 c 0.554297,0.458906 1.108594,0.917812 1.679687,1.390625 0.724454,0.613594 1.448907,1.227187 2.195313,1.859375 0.719297,0.603281 1.438594,1.206562 2.179687,1.828125 3.656217,3.612165 4.254549,6.594859 4.320313,11.671875 -0.144492,7.414232 -1.971901,11.792285 -7.125,17.0625 -7.07963,4.765135 -13.120711,5.624291 -21.4375,5.480469 -0.837246,-0.003 -1.674492,-0.006 -2.537109,-0.0092 C 27.183466,76.268259 24.091719,76.226376 21,76.1875 14.07,76.125625 7.14,76.06375 0,76 0,50.92 0,25.84 0,0 Z"
       fill="#282a2a"
       transform="translate(571,1041)"
       id="path8"
       style="display:none"
       clip-path="url(#clipPath15)" />
    <path
       d="M 0,0 C 6.27,0 12.54,0 19,0 25.74452,13.356794 32.240345,26.828303 38.706543,40.321289 39.786224,42.557276 40.882211,44.782887 42,47 42.351914,46.21053 42.703828,45.42106 43.066406,44.607666 54.920797,18.033945 54.920797,18.033945 59.75,7.75 60.072266,7.0610767 60.394531,6.3721533 60.726562,5.6623535 62.872729,1.127271 62.872729,1.127271 64,0 c 6.27,0 12.54,0 19,0 0,25.08 0,50.16 0,76 -5.28,0 -10.56,0 -16,0 C 66.67,61.15 66.34,46.3 66,31 64.55625,34.09375 63.1125,37.1875 61.625,40.375 57.465173,49.193944 52.954069,57.744445 48.128906,66.214844 46.302835,69.422371 44.61564,72.680406 43,76 42.01,76 41.02,76 40,76 37.188053,70.519177 34.376374,65.038216 31.564941,59.557129 30.608635,57.692833 29.652255,55.828575 28.695801,53.964355 27.320446,51.283627 25.945354,48.602764 24.570312,45.921875 24.143159,45.089443 23.716006,44.25701 23.275909,43.399353 22.875645,42.618846 22.475381,41.838339 22.062988,41.03418 21.712132,40.350231 21.361275,39.666283 20.999786,38.961609 19.989602,36.979599 18.99487,34.98974 18,33 17.67,47.19 17.34,61.38 17,76 11.39,76 5.78,76 0,76 0,50.92 0,25.84 0,0 Z"
       fill="#252727"
       transform="translate(462,1041)"
       id="path9"
       style="display:none"
       clip-path="url(#clipPath14)" />
    <path
       d="m 0,0 c 5.94,0 11.88,0 18,0 0.01458,1.5135205 0.02916,3.027041 0.04419,4.5864258 0.05805,5.6247502 0.135282,11.2491022 0.218262,16.8735352 0.03322,2.432551 0.06126,4.865179 0.08399,7.297851 0.0336,3.500332 0.08592,6.999964 0.141845,10.5 0.0064,1.084596 0.01278,2.169191 0.01936,3.286652 0.132937,6.854351 0.818916,11.546205 5.617355,16.768036 4.387197,2.575094 8.906794,3.435259 13.90625,2.175781 4.353116,-1.743091 7.060857,-3.530492 9.023041,-7.761764 0.982238,-2.831831 1.220102,-4.989922 1.264557,-7.975785 0.01987,-1.02068 0.03974,-2.041361 0.06021,-3.092971 0.01733,-1.634635 0.01733,-1.634635 0.035,-3.302292 0.01937,-1.124924 0.03873,-2.249847 0.05869,-3.40886 0.05969,-3.586293 0.106139,-7.172618 0.152252,-10.759109 0.03819,-2.434259 0.07724,-4.868504 0.117187,-7.302734 C 48.83813,11.923286 48.922201,5.961743 49,0 c 5.94,0 11.88,0 18,0 0.04965,6.8135473 0.08584,13.626988 0.109863,20.440674 0.01002,2.315123 0.02364,4.630233 0.04102,6.945312 0.02442,3.338818 0.03564,6.677467 0.04443,10.016358 0.01032,1.025363 0.02065,2.050727 0.03128,3.107162 C 67.228204,50.961904 65.635257,59.645543 59,68 50.300607,75.917612 40.058551,77.605129 28.625,77.351562 20.161662,76.530765 12.405679,72.681785 6.5664062,66.476562 0.15348269,58.370018 -0.43795436,48.829656 -0.29296875,38.867187 c 0.004245,-1.117848 0.00849,-2.235697 0.0128632,-3.38742 0.016658,-3.535178 0.0542864,-7.069764 0.0926056,-10.604767 0.0150635,-2.41145 0.0287489,-4.822909 0.0410156,-7.234375 C -0.11358624,11.760192 -0.06189346,5.8801961 0,0 Z"
       fill="#242626"
       transform="translate(370,1041)"
       id="path10"
       style="display:none"
       clip-path="url(#clipPath13)" />
    <path
       d="M 0,0 C 5.9817945,3.077277 9.6496932,7.58386 13.0625,13.3125 15.295587,20.29462 15.068134,28.048259 12,34.6875 8.2806199,41.196415 3.3378967,45.543335 -3.84375,47.835937 c -7.080205,1.61154 -12.362471,0.590909 -18.726562,-2.898437 -5.354895,-3.675967 -9.437672,-8.376615 -11.367188,-14.625 -0.770457,-8.00021 -1.317257,-16.450886 4,-23 C -21.707599,-1.3757252 -11.472315,-4.7193804 0,0 Z"
       fill="#f7f7f7"
       transform="translate(700.9375,1055.6875)"
       id="path11"
       clip-path="url(#clipPath12)" />
    <path
       d="m 0,0 c 5.94,0 11.88,0 18,0 0.07448,7.5073025 0.128761,15.014387 0.164795,22.521973 0.01503,2.550819 0.03546,5.101613 0.06152,7.652343 0.03663,3.678939 0.05346,7.357533 0.06665,11.036621 0.01548,1.129572 0.03097,2.259143 0.04692,3.422944 C 18.341836,53.91268 17.135012,62.672069 11,70 4.2684653,75.894197 -2.0997278,77.439607 -10.972656,77.242187 -18.282435,76.657405 -23.829391,74.26419 -29.203125,69.234375 -33.387387,64.031336 -36,57.662131 -36,51 c 5.94,0 11.88,0 18,0 0.66,2.64 1.32,5.28 2,8 1.539246,2.217509 1.539246,2.217509 4,3 3.8946657,0 6.1264727,-0.292435 9.1806641,-2.766357 2.87453681,-5.109131 2.42280236,-10.205309 2.4287109,-15.971924 0.0165362,-1.235904 0.0330725,-2.471808 0.0501099,-3.745163 0.0402948,-3.273206 0.0636496,-6.545951 0.0787353,-9.819351 0.0196078,-3.345216 0.0619065,-6.690059 0.10162354,-10.035096 C -0.08621249,13.108105 -0.03667457,6.554315 0,0 Z"
       fill="#252727"
       transform="translate(327,1041)"
       id="path12"
       style="display:none"
       clip-path="url(#clipPath11)" />
    <path
       d="M 0,0 C 3.8844668,2.5896445 6.6990702,5.6481404 8.8125,9.875 9.3760073,14.493912 9.2547879,17.973413 7.1875,22.1875 3.7611893,26.064641 1.265201,28.479293 -3.9960938,29.328125 -9.2153003,29.614823 -13.145944,29.567913 -17.3125,26.1875 -21.068433,22.257935 -22.261012,18.877922 -22.625,13.5 -22.499214,8.468579 -20.760281,5.3535122 -17.1875,1.875 -11.60833,-1.9684279 -6.2538689,-2.2072479 0,0 Z"
       fill="#252727"
       transform="translate(602.1875,622.125)"
       id="path13"
       clip-path="url(#clipPath10)" />
    <path
       d="m 0,0 c 4.0764155,2.7176103 6.989535,5.2912728 8.484375,9.984375 0.8706364,5.049691 0.2205688,8.748826 -2.3945313,13.160156 -2.815305,3.814007 -5.38573024,5.430547 -10.0859375,6.175781 -5.258763,0.302002 -9.1481982,0.24761 -13.3164062,-3.195312 -3.67018,-3.615401 -5.169718,-6.970877 -5.25,-12.125 0.120416,-4.8166414 1.016179,-7.5078084 4.375,-11.125 C -12.484903,-1.7448253 -6.9856188,-2.4655125 0,0 Z"
       fill="#252727"
       transform="translate(435.1875,622.125)"
       id="path14"
       clip-path="url(#clipPath9)" />
    <path
       d="m 0,0 c 3.5633138,-0.10807017 7.1233422,-0.18735316 10.6875,-0.25 1.511104,-0.0502734 1.511104,-0.0502734 3.052734,-0.1015625 7.450509,-0.0983565 7.450509,-0.0983565 11.435547,2.1171875 2.471715,3.0274541 2.432086,4.5793915 2.1875,8.332031 C 26.860488,12.730562 25.959822,14.18535 24,16 c -2.941319,0.98044 -4.825017,1.116212 -7.886719,1.097656 -0.937793,-0.0032 -1.875586,-0.0064 -2.841797,-0.0098 -0.976464,-0.0084 -1.952929,-0.01676 -2.958984,-0.02539 -0.9880664,-0.0045 -1.9761328,-0.009 -2.9941406,-0.01367 C 4.8788804,17.037043 2.4394326,17.019108 0,17 0,11.39 0,5.78 0,0 Z"
       fill="#f7f8f8"
       transform="translate(589,1086)"
       id="path15"
       style="display:inline"
       clip-path="url(#clipPath8)" />
    <path
       d="m 0,0 c 3.2097592,-0.1354964 6.4137563,-0.23434038 9.625,-0.3125 1.355449,-0.0628418 1.355449,-0.0628418 2.738281,-0.12695312 4.441211,-0.081044 7.655718,-0.0737074 11.242188,2.74023442 C 26,5 26,5 26.6875,8.5 25.796089,13.038092 24.727556,14.262431 21,17 17.375106,17.607932 13.849827,17.472373 10.1875,17.3125 8.7189356,17.278662 8.7189356,17.278662 7.2207031,17.244141 4.8131427,17.18542 2.4063725,17.095744 0,17 0,11.39 0,5.78 0,0 Z"
       fill="#f6f6f7"
       transform="translate(589,1055)"
       id="path16"
       style="display:inline"
       clip-path="url(#clipPath7)" />
    <path
       d="m 0,0 c 5.94,0 11.88,0 18,0 0.04937,6.9234106 0.08571,13.846719 0.109863,20.770264 0.01007,2.356138 0.02372,4.712263 0.04102,7.068359 0.02421,3.383251 0.0356,6.766337 0.04443,10.149658 0.01032,1.056332 0.02065,2.112663 0.03128,3.201004 1.51e-4,0.980791 3.02e-4,1.961581 4.58e-4,2.972092 0.0044,0.863818 0.0089,1.727636 0.01346,2.61763 C 18,49 18,49 16,52 16,35.5 16,19 16,2 10.72,2 5.44,2 0,2 0,1.34 0,0.68 0,0 Z"
       fill="#313232"
       transform="translate(419,1041)"
       id="path17"
       style="display:none"
       clip-path="url(#clipPath6)" />
    <path
       d="m 0,0 c 5.2858549,-0.50341475 7.8655415,0.73089329 12,4 0.33,0.66 0.66,1.32 1,2 C 12.437969,5.6932031 11.875937,5.3864062 11.296875,5.0703125 8.9365307,3.9704242 6.7953444,3.3990415 4.25,2.875 3.4507813,2.7074219 2.6515625,2.5398438 1.828125,2.3671875 1.2248437,2.2460156 0.6215625,2.1248438 0,2 0,1.34 0,0.68 0,0 Z"
       fill="#303131"
       transform="translate(442,713)"
       id="path18"
       clip-path="url(#clipPath5)" />
    <path
       d="M 0,0 C 0.33,0 0.66,0 1,0 1.3125,2.1875 1.3125,2.1875 1,5 -1.5,7.8125 -1.5,7.8125 -4,10 -4.99,9.67 -5.98,9.34 -7,9 -6.5784766,8.5178906 -6.1569531,8.0357813 -5.7226562,7.5390625 -5.1748047,6.9074219 -4.6269531,6.2757812 -4.0625,5.625 -3.5172266,4.9985156 -2.9719531,4.3720312 -2.4101563,3.7265625 -0.93041376,2.0436767 -0.93041376,2.0436767 0,0 Z"
       fill="#323334"
       transform="translate(712,1090)"
       id="path19"
       style="display:none"
       clip-path="url(#clipPath4)" />
    <path
       d="M 0,0 C 2.4078599,3.2104799 3.6819763,5.3500883 5,9 3.68,9.33 2.36,9.66 1,10 0.67,6.7 0.34,3.4 0,0 Z"
       fill="#f0f0f0"
       transform="translate(479,1072)"
       id="path20"
       clip-path="url(#clipPath3)" />
    <path
       d="M 0,0 C 0.33,0 0.66,0 1,0 1.1875,3.375 1.1875,3.375 1,7 0.01,7.66 -0.98,8.32 -2,9 -2.33,8.34 -2.66,7.68 -3,7 -2.06421,4.6401819 -1.0665219,2.3036874 0,0 Z"
       fill="#eeeeee"
       transform="translate(528,1070)"
       id="path21"
       clip-path="url(#clipPath2)" />
  </g>
  <g
     inkscape:groupmode="layer"
     id="layer1"
     inkscape:label="mustache"
     transform="translate(-226.71588,-432.64948)" />
  <g
     inkscape:groupmode="layer"
     id="layer2"
     inkscape:label="green"
     style="display:inline"
     transform="translate(-226.71588,-432.64948)">
    <path
       style="fill:#37c871;stroke-width:0.944649"
       d="m 543.01707,844.98798 c -8.56083,-1.62224 -16.4118,-4.46602 -26.76615,-9.69528 -34.9105,-17.63083 -52.88578,-48.0409 -59.59889,-100.82775 -1.94002,-15.25483 -3.28445,-18.42125 -8.60317,-20.26227 -3.41788,-1.18307 -4.29529,-1.18762 -6.45194,-0.0334 -2.98743,1.59882 -4.71058,4.7122 -5.61253,10.14069 -0.77423,4.65979 -1.14506,4.74617 -11.21595,2.61238 -7.92321,-1.67873 -23.68038,-9.1333 -31.32195,-14.81812 -18.12432,-13.48329 -28.24068,-27.3952 -35.60258,-48.96031 -4.76872,-13.96896 -5.58784,-19.21428 -6.14302,-39.33773 -0.78423,-28.42604 1.77304,-44.86409 10.3164,-66.31328 8.1516,-20.46564 18.74934,-36.10181 36.62478,-54.03715 17.60913,-17.66815 32.99502,-27.42144 55.75473,-35.34357 30.13992,-10.49102 66.86232,-11.87253 99.15146,-3.7301 29.73224,7.49765 53.70126,21.01614 75.1881,42.40596 21.22845,21.1326 32.69457,41.61621 39.93262,71.33742 3.93643,16.16399 5.07163,25.50471 5.05146,41.56458 -0.0691,55.0226 -24.63764,91.38393 -72.45107,107.22732 -7.38365,2.44664 -18.42066,4.19494 -18.42066,2.91791 0,-0.35264 0.85018,-2.30766 1.8893,-4.34449 4.56924,-8.95645 1.25806,-17.00369 -6.99646,-17.00369 -3.62733,0 -4.72571,0.49148 -7.51355,3.36202 -4.31119,4.43909 -13.11009,22.34769 -16.21707,33.00698 -2.98469,10.23973 -4.02249,24.04274 -2.39492,31.85309 2.68799,12.89905 12.3841,24.94359 23.40667,29.07587 13.28192,4.97929 27.24351,4.12328 40.80475,-2.5018 7.34129,-3.58643 10.36269,-5.792 17.34214,-12.65941 5.12755,-5.04524 8.97041,-8.11736 9.77004,-7.81052 1.99404,0.7652 4.44029,10.24034 3.68425,14.27037 -1.57244,8.38187 -8.96918,18.56924 -19.73911,27.18624 -12.04007,9.63325 -25.84217,15.9201 -43.56372,19.84324 -9.51594,2.10662 -31.3074,2.57961 -40.30396,0.87481 z M 434.85704,649.97738 c 3.52927,-1.34183 6.97435,-5.56648 8.06186,-9.88614 1.79435,-7.12735 -1.1803,-13.83164 -7.62476,-17.18468 -3.57445,-1.85979 -11.00715,-1.66287 -14.93987,0.39581 -3.77182,1.97445 -7.55375,8.45205 -7.52172,12.88303 0.0325,4.49204 3.29815,10.64714 6.77304,12.76572 3.39266,2.06845 11.13926,2.58971 15.25145,1.02626 z m 167.76369,-0.49695 c 4.19515,-2.1694 7.44407,-6.6988 8.14162,-11.35045 0.53093,-3.54051 0.23633,-4.89992 -1.82373,-8.41514 -3.3547,-5.72436 -7.50908,-8.1355 -14.01743,-8.1355 -11.72835,0 -18.06549,10.42551 -13.05131,21.47125 2.40522,5.29846 6.59991,7.80478 13.07002,7.80935 2.75347,0.002 6.20985,-0.61884 7.68083,-1.37951 z"
       id="path28" />
    <path
       style="fill:#37c871;stroke-width:0.944649"
       d="m 335.35055,698.13496 c -19.7664,-4.22761 -40.12285,-15.43607 -54.84502,-30.19819 -15.70924,-15.75187 -25.17455,-39.47029 -26.15133,-65.53064 -0.53984,-14.40288 0.42424,-22.85049 4.09982,-35.92407 5.64513,-20.07904 14.37064,-35.44463 27.75029,-48.86814 7.3418,-7.36586 10.56592,-9.83109 17.51085,-13.38911 10.74145,-5.50304 20.46398,-8.09578 35.30339,-9.41445 11.98681,-1.06519 31.61565,0.15434 33.5563,2.08483 0.50945,0.50679 -1.20054,3.63711 -4.22903,7.74165 -17.67917,23.96076 -27.13616,43.40553 -33.37865,68.63072 -3.30305,13.34723 -4.18842,19.82535 -4.79531,35.08668 -1.29536,32.57403 4.72739,62.06514 17.02067,83.34362 2.31939,4.01463 4.21706,7.52164 4.21706,7.79336 0,1.00741 -8.27524,0.30853 -16.05904,-1.35626 z"
       id="path29" />
    <path
       style="fill:#37c871;stroke-width:0.944649"
       d="m 676.97353,693.60886 c 12.53681,-27.56952 15.87689,-40.50174 16.99316,-65.79448 2.01014,-45.54599 -10.62045,-86.71567 -37.49516,-122.21634 -2.56487,-3.38813 -4.66341,-6.745 -4.66341,-7.45971 0,-2.66984 5.04078,-3.52652 20.78229,-3.53195 23.27613,-0.008 37.71672,3.65683 52.90037,13.42554 22.5305,14.49546 36.66373,37.06132 42.12537,67.25959 2.37067,13.10779 2.21223,34.6906 -0.33674,45.87161 -6.13274,26.90116 -21.49382,49.46998 -42.01114,61.72361 -16.66916,9.95537 -34.2058,16.15386 -45.70221,16.15386 h -5.06253 z"
       id="path30" />
    <path
       style="fill:#37c871;stroke-width:0.944649"
       d="m 358.29489,975.37364 c -23.78253,-6.67949 -38.0715,-30.93181 -50.6637,-85.9903 -7.40708,-32.3869 -8.55575,-42.1713 -8.59427,-73.20622 -0.0267,-21.49052 0.31194,-29.11436 1.67828,-37.78598 3.37866,-21.44306 8.22139,-40.9378 14.01813,-56.43098 1.34224,-3.58745 2.35665,-4.97123 3.64426,-4.97123 0.98136,0 7.55701,1.2907 14.61255,2.86822 8.11202,1.81373 17.41781,3.14912 25.31189,3.6323 14.13128,0.86494 17.80527,2.07071 27.59487,9.05643 11.57948,8.26295 25.48447,13.9573 42.48862,17.39988 4.90002,0.99204 8.57971,2.24531 9.04771,3.08156 0.43383,0.77522 2.47803,7.9921 4.54267,16.03752 7.49415,29.20303 18.77957,49.23489 37.80727,67.1088 16.26874,15.28223 38.36483,25.64136 63.34183,29.69602 10.64711,1.72841 32.64451,1.68622 42.78455,-0.082 14.32833,-2.49866 31.78177,-9.67642 46.53325,-19.13692 8.57344,-5.49836 23.56154,-20.72653 28.13363,-28.58427 8.4943,-14.59854 9.64018,-29.40667 3.2563,-42.08072 -4.41771,-8.77057 -10.21596,-15.98122 -15.59285,-19.39114 -8.25677,-5.23629 -11.69616,-3.76268 -22.4492,9.6184 -13.2115,16.44038 -23.27171,22.5542 -35.10327,21.33307 -6.92339,-0.71455 -11.5269,-3.20193 -14.90594,-8.05399 -2.74475,-3.94127 -2.85158,-4.47796 -2.85158,-14.32516 0,-5.62677 0.30111,-10.5325 0.66912,-10.90163 0.36802,-0.36913 6.10677,-1.62454 12.75277,-2.78979 28.43701,-4.98591 48.10078,-12.75468 61.38691,-24.25276 3.51649,-3.04324 4.78031,-3.53089 10.41224,-4.01757 12.94226,-1.11842 28.32937,-3.38662 35.60903,-5.24911 4.10968,-1.05146 8.8778,-1.91174 10.59582,-1.91174 h 3.12369 l 4.28123,13.43118 c 8.62189,27.0488 12.64469,50.58757 13.44876,78.69329 0.93351,32.63052 -3.07498,60.47887 -14.95397,103.89029 -5.88283,21.49864 -9.81985,33.51978 -13.18083,40.24587 -5.1097,10.22568 -17.76531,18.6425 -33.45842,22.25207 -10.67876,2.45621 -47.1742,2.52272 -55.95598,0.10197 -8.65306,-2.38527 -15.07629,-5.92867 -16.80421,-9.2701 -0.81543,-1.57687 -2.51502,-8.75282 -3.77687,-15.94656 -3.67641,-20.95903 -7.80428,-30.26235 -17.85808,-40.24825 -13.10368,-13.01516 -31.74543,-18.93063 -59.1104,-18.75712 -14.47088,0.0918 -17.65552,0.40272 -25.55051,2.49488 -17.44644,4.62327 -29.11899,12.18193 -36.66664,23.74379 -5.62666,8.61916 -8.10958,16.15863 -10.96897,33.30751 -3.0961,18.56852 -4.33151,20.11987 -19.20842,24.12064 -6.20579,1.66888 -10.71184,2.00495 -30.88221,2.30325 -18.69214,0.27644 -24.64267,0.061 -28.53906,-1.03335 z"
       id="path31" />
  </g>
  <g
     inkscape:groupmode="layer"
     id="layer3"
     inkscape:label="pink"
     style="display:inline"
     transform="translate(-226.71588,-432.64948)">
    <path
       style="fill:#ff80b2;stroke-width:0.944649"
       d="m 335.35055,698.13496 c -19.7664,-4.22761 -40.12285,-15.43607 -54.84502,-30.19819 -15.70924,-15.75187 -25.17455,-39.47029 -26.15133,-65.53064 -0.53984,-14.40288 0.42424,-22.85049 4.09982,-35.92407 5.64513,-20.07904 14.37064,-35.44463 27.75029,-48.86814 7.3418,-7.36586 10.56592,-9.83109 17.51085,-13.38911 10.74145,-5.50304 20.46398,-8.09578 35.30339,-9.41445 11.98681,-1.06519 31.61565,0.15434 33.5563,2.08483 0.50945,0.50679 -1.20054,3.63711 -4.22903,7.74165 -17.67917,23.96076 -27.13616,43.40553 -33.37865,68.63072 -3.30305,13.34723 -4.18842,19.82535 -4.79531,35.08668 -1.29536,32.57403 4.72739,62.06514 17.02067,83.34362 2.31939,4.01463 4.21706,7.52164 4.21706,7.79336 0,1.00741 -8.27524,0.30853 -16.05904,-1.35626 z"
       id="path33" />
    <path
       style="fill:#ff80b2;stroke-width:0.944649"
       d="m 676.97353,693.60886 c 12.53681,-27.56952 15.87689,-40.50174 16.99316,-65.79448 2.01014,-45.54599 -10.62045,-86.71567 -37.49516,-122.21634 -2.56487,-3.38813 -4.66341,-6.745 -4.66341,-7.45971 0,-2.66984 5.04078,-3.52652 20.78229,-3.53195 23.27613,-0.008 37.71672,3.65683 52.90037,13.42554 22.5305,14.49546 36.66373,37.06132 42.12537,67.25959 2.37067,13.10779 2.21223,34.6906 -0.33674,45.87161 -6.13274,26.90116 -21.49382,49.46998 -42.01114,61.72361 -16.66916,9.95537 -34.2058,16.15386 -45.70221,16.15386 h -5.06253 z"
       id="path34" />
    <path
       style="fill:#ff80b2;stroke-width:0.944649"
       d="m 358.29489,975.37364 c -23.78253,-6.67949 -38.0715,-30.93181 -50.6637,-85.9903 -7.40708,-32.3869 -8.55575,-42.1713 -8.59427,-73.20622 -0.0267,-21.49052 0.31194,-29.11436 1.67828,-37.78598 3.37866,-21.44306 8.22139,-40.9378 14.01813,-56.43098 1.34224,-3.58745 2.35665,-4.97123 3.64426,-4.97123 0.98136,0 7.55701,1.2907 14.61255,2.86822 8.11202,1.81373 17.41781,3.14912 25.31189,3.6323 14.13128,0.86494 17.80527,2.07071 27.59487,9.05643 11.57948,8.26295 25.48447,13.9573 42.48862,17.39988 4.90002,0.99204 8.57971,2.24531 9.04771,3.08156 0.43383,0.77522 2.47803,7.9921 4.54267,16.03752 7.49415,29.20303 18.77957,49.23489 37.80727,67.1088 16.26874,15.28223 38.36483,25.64136 63.34183,29.69602 10.64711,1.72841 32.64451,1.68622 42.78455,-0.082 14.32833,-2.49866 31.78177,-9.67642 46.53325,-19.13692 8.57344,-5.49836 23.56154,-20.72653 28.13363,-28.58427 8.4943,-14.59854 9.64018,-29.40667 3.2563,-42.08072 -4.41771,-8.77057 -10.21596,-15.98122 -15.59285,-19.39114 -8.25677,-5.23629 -11.69616,-3.76268 -22.4492,9.6184 -13.2115,16.44038 -23.27171,22.5542 -35.10327,21.33307 -6.92339,-0.71455 -11.5269,-3.20193 -14.90594,-8.05399 -2.74475,-3.94127 -2.85158,-4.47796 -2.85158,-14.32516 0,-5.62677 0.30111,-10.5325 0.66912,-10.90163 0.36802,-0.36913 6.10677,-1.62454 12.75277,-2.78979 28.43701,-4.98591 48.10078,-12.75468 61.38691,-24.25276 3.51649,-3.04324 4.78031,-3.53089 10.41224,-4.01757 12.94226,-1.11842 28.32937,-3.38662 35.60903,-5.24911 4.10968,-1.05146 8.8778,-1.91174 10.59582,-1.91174 h 3.12369 l 4.28123,13.43118 c 8.62189,27.0488 12.64469,50.58757 13.44876,78.69329 0.93351,32.63052 -3.07498,60.47887 -14.95397,103.89029 -5.88283,21.49864 -9.81985,33.51978 -13.18083,40.24587 -5.1097,10.22568 -17.76531,18.6425 -33.45842,22.25207 -10.67876,2.45621 -47.1742,2.52272 -55.95598,0.10197 -8.65306,-2.38527 -15.07629,-5.92867 -16.80421,-9.2701 -0.81543,-1.57687 -2.51502,-8.75282 -3.77687,-15.94656 -3.67641,-20.95903 -7.80428,-30.26235 -17.85808,-40.24825 -13.10368,-13.01516 -31.74543,-18.93063 -59.1104,-18.75712 -14.47088,0.0918 -17.65552,0.40272 -25.55051,2.49488 -17.44644,4.62327 -29.11899,12.18193 -36.66664,23.74379 -5.62666,8.61916 -8.10958,16.15863 -10.96897,33.30751 -3.0961,18.56852 -4.33151,20.11987 -19.20842,24.12064 -6.20579,1.66888 -10.71184,2.00495 -30.88221,2.30325 -18.69214,0.27644 -24.64267,0.061 -28.53906,-1.03335 z"
       id="path35" />
    <path
       style="fill:#ff80b2;stroke-width:0.944649"
       d="m 543.01707,844.98798 c -8.56083,-1.62224 -16.4118,-4.46602 -26.76615,-9.69528 -34.9105,-17.63083 -52.88578,-48.0409 -59.59889,-100.82775 -1.94002,-15.25483 -3.28445,-18.42125 -8.60317,-20.26227 -3.41788,-1.18307 -4.29529,-1.18762 -6.45194,-0.0334 -2.98743,1.59882 -4.71058,4.7122 -5.61253,10.14069 -0.77423,4.65979 -1.14506,4.74617 -11.21595,2.61238 -7.92321,-1.67873 -23.68038,-9.1333 -31.32195,-14.81812 -18.12432,-13.48329 -28.24068,-27.3952 -35.60258,-48.96031 -4.76872,-13.96896 -5.58784,-19.21428 -6.14302,-39.33773 -0.78423,-28.42604 1.77304,-44.86409 10.3164,-66.31328 8.1516,-20.46564 18.74934,-36.10181 36.62478,-54.03715 17.60913,-17.66815 32.99502,-27.42144 55.75473,-35.34357 30.13992,-10.49102 66.86232,-11.87253 99.15146,-3.7301 29.73224,7.49765 53.70126,21.01614 75.1881,42.40596 21.22845,21.1326 32.69457,41.61621 39.93262,71.33742 3.93643,16.16399 5.07163,25.50471 5.05146,41.56458 -0.0691,55.0226 -24.63764,91.38393 -72.45107,107.22732 -7.38365,2.44664 -18.42066,4.19494 -18.42066,2.91791 0,-0.35264 0.85018,-2.30766 1.8893,-4.34449 4.56924,-8.95645 1.25806,-17.00369 -6.99646,-17.00369 -3.62733,0 -4.72571,0.49148 -7.51355,3.36202 -4.31119,4.43909 -13.11009,22.34769 -16.21707,33.00698 -2.98469,10.23973 -4.02249,24.04274 -2.39492,31.85309 2.68799,12.89905 12.3841,24.94359 23.40667,29.07587 13.28192,4.97929 27.24351,4.12328 40.80475,-2.5018 7.34129,-3.58643 10.36269,-5.792 17.34214,-12.65941 5.12755,-5.04524 8.97041,-8.11736 9.77004,-7.81052 1.99404,0.7652 4.44029,10.24034 3.68425,14.27037 -1.57244,8.38187 -8.96918,18.56924 -19.73911,27.18624 -12.04007,9.63325 -25.84217,15.9201 -43.56372,19.84324 -9.51594,2.10662 -31.3074,2.57961 -40.30396,0.87481 z M 434.85704,649.97738 c 3.52927,-1.34183 6.97435,-5.56648 8.06186,-9.88614 1.79435,-7.12735 -1.1803,-13.83164 -7.62476,-17.18468 -3.57445,-1.85979 -11.00715,-1.66287 -14.93987,0.39581 -3.77182,1.97445 -7.55375,8.45205 -7.52172,12.88303 0.0325,4.49204 3.29815,10.64714 6.77304,12.76572 3.39266,2.06845 11.13926,2.58971 15.25145,1.02626 z m 167.76369,-0.49695 c 4.19515,-2.1694 7.44407,-6.6988 8.14162,-11.35045 0.53093,-3.54051 0.23633,-4.89992 -1.82373,-8.41514 -3.3547,-5.72436 -7.50908,-8.1355 -14.01743,-8.1355 -11.72835,0 -18.06549,10.42551 -13.05131,21.47125 2.40522,5.29846 6.59991,7.80478 13.07002,7.80935 2.75347,0.002 6.20985,-0.61884 7.68083,-1.37951 z"
       id="path32" />
  </g>
  <g
     inkscape:groupmode="layer"
     id="layer4"
     inkscape:label="blue"
     style="display:inline"
     transform="translate(-226.71588,-432.64948)">
    <path
       style="fill:#66b4f4;stroke-width:0.944649;fill-opacity:1"
       d="m 543.01707,844.98798 c -8.56083,-1.62224 -16.4118,-4.46602 -26.76615,-9.69528 -34.9105,-17.63083 -52.88578,-48.0409 -59.59889,-100.82775 -1.94002,-15.25483 -3.28445,-18.42125 -8.60317,-20.26227 -3.41788,-1.18307 -4.29529,-1.18762 -6.45194,-0.0334 -2.98743,1.59882 -4.71058,4.7122 -5.61253,10.14069 -0.77423,4.65979 -1.14506,4.74617 -11.21595,2.61238 -7.92321,-1.67873 -23.68038,-9.1333 -31.32195,-14.81812 -18.12432,-13.48329 -28.24068,-27.3952 -35.60258,-48.96031 -4.76872,-13.96896 -5.58784,-19.21428 -6.14302,-39.33773 -0.78423,-28.42604 1.77304,-44.86409 10.3164,-66.31328 8.1516,-20.46564 18.74934,-36.10181 36.62478,-54.03715 17.60913,-17.66815 32.99502,-27.42144 55.75473,-35.34357 30.13992,-10.49102 66.86232,-11.87253 99.15146,-3.7301 29.73224,7.49765 53.70126,21.01614 75.1881,42.40596 21.22845,21.1326 32.69457,41.61621 39.93262,71.33742 3.93643,16.16399 5.07163,25.50471 5.05146,41.56458 -0.0691,55.0226 -24.63764,91.38393 -72.45107,107.22732 -7.38365,2.44664 -18.42066,4.19494 -18.42066,2.91791 0,-0.35264 0.85018,-2.30766 1.8893,-4.34449 4.56924,-8.95645 1.25806,-17.00369 -6.99646,-17.00369 -3.62733,0 -4.72571,0.49148 -7.51355,3.36202 -4.31119,4.43909 -13.11009,22.34769 -16.21707,33.00698 -2.98469,10.23973 -4.02249,24.04274 -2.39492,31.85309 2.68799,12.89905 12.3841,24.94359 23.40667,29.07587 13.28192,4.97929 27.24351,4.12328 40.80475,-2.5018 7.34129,-3.58643 10.36269,-5.792 17.34214,-12.65941 5.12755,-5.04524 8.97041,-8.11736 9.77004,-7.81052 1.99404,0.7652 4.44029,10.24034 3.68425,14.27037 -1.57244,8.38187 -8.96918,18.56924 -19.73911,27.18624 -12.04007,9.63325 -25.84217,15.9201 -43.56372,19.84324 -9.51594,2.10662 -31.3074,2.57961 -40.30396,0.87481 z M 434.85704,649.97738 c 3.52927,-1.34183 6.97435,-5.56648 8.06186,-9.88614 1.79435,-7.12735 -1.1803,-13.83164 -7.62476,-17.18468 -3.57445,-1.85979 -11.00715,-1.66287 -14.93987,0.39581 -3.77182,1.97445 -7.55375,8.45205 -7.52172,12.88303 0.0325,4.49204 3.29815,10.64714 6.77304,12.76572 3.39266,2.06845 11.13926,2.58971 15.25145,1.02626 z m 167.76369,-0.49695 c 4.19515,-2.1694 7.44407,-6.6988 8.14162,-11.35045 0.53093,-3.54051 0.23633,-4.89992 -1.82373,-8.41514 -3.3547,-5.72436 -7.50908,-8.1355 -14.01743,-8.1355 -11.72835,0 -18.06549,10.42551 -13.05131,21.47125 2.40522,5.29846 6.59991,7.80478 13.07002,7.80935 2.75347,0.002 6.20985,-0.61884 7.68083,-1.37951 z"
       id="path36" />
    <path
       style="fill:#66b4f4;stroke-width:0.944649;fill-opacity:1"
       d="m 676.97353,693.60886 c 12.53681,-27.56952 15.87689,-40.50174 16.99316,-65.79448 2.01014,-45.54599 -10.62045,-86.71567 -37.49516,-122.21634 -2.56487,-3.38813 -4.66341,-6.745 -4.66341,-7.45971 0,-2.66984 5.04078,-3.52652 20.78229,-3.53195 23.27613,-0.008 37.71672,3.65683 52.90037,13.42554 22.5305,14.49546 36.66373,37.06132 42.12537,67.25959 2.37067,13.10779 2.21223,34.6906 -0.33674,45.87161 -6.13274,26.90116 -21.49382,49.46998 -42.01114,61.72361 -16.66916,9.95537 -34.2058,16.15386 -45.70221,16.15386 h -5.06253 z"
       id="path37" />
    <path
       style="fill:#66b4f4;stroke-width:0.944649;fill-opacity:1"
       d="m 358.29489,975.37364 c -23.78253,-6.67949 -38.0715,-30.93181 -50.6637,-85.9903 -7.40708,-32.3869 -8.55575,-42.1713 -8.59427,-73.20622 -0.0267,-21.49052 0.31194,-29.11436 1.67828,-37.78598 3.37866,-21.44306 8.22139,-40.9378 14.01813,-56.43098 1.34224,-3.58745 2.35665,-4.97123 3.64426,-4.97123 0.98136,0 7.55701,1.2907 14.61255,2.86822 8.11202,1.81373 17.41781,3.14912 25.31189,3.6323 14.13128,0.86494 17.80527,2.07071 27.59487,9.05643 11.57948,8.26295 25.48447,13.9573 42.48862,17.39988 4.90002,0.99204 8.57971,2.24531 9.04771,3.08156 0.43383,0.77522 2.47803,7.9921 4.54267,16.03752 7.49415,29.20303 18.77957,49.23489 37.80727,67.1088 16.26874,15.28223 38.36483,25.64136 63.34183,29.69602 10.64711,1.72841 32.64451,1.68622 42.78455,-0.082 14.32833,-2.49866 31.78177,-9.67642 46.53325,-19.13692 8.57344,-5.49836 23.56154,-20.72653 28.13363,-28.58427 8.4943,-14.59854 9.64018,-29.40667 3.2563,-42.08072 -4.41771,-8.77057 -10.21596,-15.98122 -15.59285,-19.39114 -8.25677,-5.23629 -11.69616,-3.76268 -22.4492,9.6184 -13.2115,16.44038 -23.27171,22.5542 -35.10327,21.33307 -6.92339,-0.71455 -11.5269,-3.20193 -14.90594,-8.05399 -2.74475,-3.94127 -2.85158,-4.47796 -2.85158,-14.32516 0,-5.62677 0.30111,-10.5325 0.66912,-10.90163 0.36802,-0.36913 6.10677,-1.62454 12.75277,-2.78979 28.43701,-4.98591 48.10078,-12.75468 61.38691,-24.25276 3.51649,-3.04324 4.78031,-3.53089 10.41224,-4.01757 12.94226,-1.11842 28.32937,-3.38662 35.60903,-5.24911 4.10968,-1.05146 8.8778,-1.91174 10.59582,-1.91174 h 3.12369 l 4.28123,13.43118 c 8.62189,27.0488 12.64469,50.58757 13.44876,78.69329 0.93351,32.63052 -3.07498,60.47887 -14.95397,103.89029 -5.88283,21.49864 -9.81985,33.51978 -13.18083,40.24587 -5.1097,10.22568 -17.76531,18.6425 -33.45842,22.25207 -10.67876,2.45621 -47.1742,2.52272 -55.95598,0.10197 -8.65306,-2.38527 -15.07629,-5.92867 -16.80421,-9.2701 -0.81543,-1.57687 -2.51502,-8.75282 -3.77687,-15.94656 -3.67641,-20.95903 -7.80428,-30.26235 -17.85808,-40.24825 -13.10368,-13.01516 -31.74543,-18.93063 -59.1104,-18.75712 -14.47088,0.0918 -17.65552,0.40272 -25.55051,2.49488 -17.44644,4.62327 -29.11899,12.18193 -36.66664,23.74379 -5.62666,8.61916 -8.10958,16.15863 -10.96897,33.30751 -3.0961,18.56852 -4.33151,20.11987 -19.20842,24.12064 -6.20579,1.66888 -10.71184,2.00495 -30.88221,2.30325 -18.69214,0.27644 -24.64267,0.061 -28.53906,-1.03335 z"
       id="path38" />
    <path
       style="fill:#66b4f4;stroke-width:0.944649;fill-opacity:1"
       d="m 335.35055,698.13496 c -19.7664,-4.22761 -40.12285,-15.43607 -54.84502,-30.19819 -15.70924,-15.75187 -25.17455,-39.47029 -26.15133,-65.53064 -0.53984,-14.40288 0.42424,-22.85049 4.09982,-35.92407 5.64513,-20.07904 14.37064,-35.44463 27.75029,-48.86814 7.3418,-7.36586 10.56592,-9.83109 17.51085,-13.38911 10.74145,-5.50304 20.46398,-8.09578 35.30339,-9.41445 11.98681,-1.06519 31.61565,0.15434 33.5563,2.08483 0.50945,0.50679 -1.20054,3.63711 -4.22903,7.74165 -17.67917,23.96076 -27.13616,43.40553 -33.37865,68.63072 -3.30305,13.34723 -4.18842,19.82535 -4.79531,35.08668 -1.29536,32.57403 4.72739,62.06514 17.02067,83.34362 2.31939,4.01463 4.21706,7.52164 4.21706,7.79336 0,1.00741 -8.27524,0.30853 -16.05904,-1.35626 z"
       id="path39" />
  </g>
</svg>

